<?xml version="1.0" encoding="UTF-8" standalone="no"?>
<svg width="16px" height="16px" viewBox="0 0 16 16" version="1.1" xmlns="http://www.w3.org/2000/svg" xmlns:xlink="http://www.w3.org/1999/xlink">
    <!-- Generator: Sketch 47.1 (45422) - http://www.bohemiancoding.com/sketch -->
    <title>01_nor</title>
    <desc>Created with Sketch.</desc>
    <defs></defs>
    <g id="Symbols" stroke="none" stroke-width="1" fill="none" fill-rule="evenodd">
        <g id="list_icon2-copy-5">
            <g id="01_nor">
                <rect id="Rectangle-7" fill-opacity="0.01" fill="#1A2C55" x="0" y="0" width="16" height="16"></rect>
                <path d="M3,7 L3,3 L7,3 L7,7 L3,7 Z M3.5,3 C3.22385763,3 3,3.22385763 3,3.5 L3,6.5 C3,6.77614237 3.22385763,7 3.5,7 L6.5,7 C6.77614237,7 7,6.77614237 7,6.5 L7,3.5 C7,3.22385763 6.77614237,3 6.5,3 L3.5,3 Z M9.5,3 C9.22385763,3 9,3.22385763 9,3.5 L9,6.5 C9,6.77614237 9.22385763,7 9.5,7 L12.5,7 C12.7761424,7 13,6.77614237 13,6.5 L13,3.5 C13,3.22385763 12.7761424,3 12.5,3 L9.5,3 Z M3.5,9 C3.22385763,9 3,9.22385763 3,9.5 L3,12.5 C3,12.7761424 3.22385763,13 3.5,13 L6.5,13 C6.77614237,13 7,12.7761424 7,12.5 L7,9.5 C7,9.22385763 6.77614237,9 6.5,9 L3.5,9 Z" id="Combined-Shape" stroke="#FDFFFF" opacity="0.600000024" fill-rule="nonzero"></path>
                <path d="M11,9.5 C10.1715729,9.5 9.5,10.1715729 9.5,11 C9.5,11.8284271 10.1715729,12.5 11,12.5 C11.8284271,12.5 12.5,11.8284271 12.5,11 C12.5,10.1715729 11.8284271,9.5 11,9.5 Z M11,8.5 C12.3807119,8.5 13.5,9.61928813 13.5,11 C13.5,12.3807119 12.3807119,13.5 11,13.5 C9.61928813,13.5 8.5,12.3807119 8.5,11 C8.5,9.61928813 9.61928813,8.5 11,8.5 Z" id="Rectangle-5-Copy-2" fill="#34BBED" fill-rule="nonzero"></path>
            </g>
        </g>
    </g>
</svg>