<?xml version="1.0" encoding="UTF-8" standalone="no"?>
<svg width="16px" height="16px" viewBox="0 0 16 16" version="1.1" xmlns="http://www.w3.org/2000/svg" xmlns:xlink="http://www.w3.org/1999/xlink">
    <!-- Generator: Sketch 47.1 (45422) - http://www.bohemiancoding.com/sketch -->
    <title>01_sel</title>
    <desc>Created with Sketch.</desc>
    <defs></defs>
    <g id="Symbols" stroke="none" stroke-width="1" fill="none" fill-rule="evenodd">
        <g id="list_icon2-copy-11">
            <g id="01_sel">
                <rect id="Rectangle-7" fill-opacity="0.01" fill="#1A2C55" x="0" y="0" width="16" height="16"></rect>
                <path d="M3.5,3.5 L3.5,6.5 L6.5,6.5 L6.5,3.5 L3.5,3.5 Z M3.5,2.5 L6.5,2.5 C7.05228475,2.5 7.5,2.94771525 7.5,3.5 L7.5,6.5 C7.5,7.05228475 7.05228475,7.5 6.5,7.5 L3.5,7.5 C2.94771525,7.5 2.5,7.05228475 2.5,6.5 L2.5,3.5 C2.5,2.94771525 2.94771525,2.5 3.5,2.5 Z M9.5,2.5 L12.5,2.5 C13.0522847,2.5 13.5,2.94771525 13.5,3.5 L13.5,6.5 C13.5,7.05228475 13.0522847,7.5 12.5,7.5 L9.5,7.5 C8.94771525,7.5 8.5,7.05228475 8.5,6.5 L8.5,3.5 C8.5,2.94771525 8.94771525,2.5 9.5,2.5 Z M3.5,8.5 L6.5,8.5 C7.05228475,8.5 7.5,8.94771525 7.5,9.5 L7.5,12.5 C7.5,13.0522847 7.05228475,13.5 6.5,13.5 L3.5,13.5 C2.94771525,13.5 2.5,13.0522847 2.5,12.5 L2.5,9.5 C2.5,8.94771525 2.94771525,8.5 3.5,8.5 Z M3.5,9.5 L3.5,12.5 L6.5,12.5 L6.5,9.5 L3.5,9.5 Z M9.5,3.5 L9.5,6.5 L12.5,6.5 L12.5,3.5 L9.5,3.5 Z M11,8.5 C12.3807119,8.5 13.5,9.61928813 13.5,11 C13.5,12.3807119 12.3807119,13.5 11,13.5 C9.61928813,13.5 8.5,12.3807119 8.5,11 C8.5,9.61928813 9.61928813,8.5 11,8.5 Z M11,9.5 C10.1715729,9.5 9.5,10.1715729 9.5,11 C9.5,11.8284271 10.1715729,12.5 11,12.5 C11.8284271,12.5 12.5,11.8284271 12.5,11 C12.5,10.1715729 11.8284271,9.5 11,9.5 Z" id="Combined-Shape" fill="#FDFFFF" fill-rule="nonzero"></path>
            </g>
        </g>
    </g>
</svg>