<?xml version="1.0" encoding="UTF-8" standalone="no"?>
<svg width="16px" height="16px" viewBox="0 0 16 16" version="1.1" xmlns="http://www.w3.org/2000/svg" xmlns:xlink="http://www.w3.org/1999/xlink">
    <!-- Generator: Sketch 47.1 (45422) - http://www.bohemiancoding.com/sketch -->
    <title>02_nor</title>
    <desc>Created with Sketch.</desc>
    <defs></defs>
    <g id="Symbols" stroke="none" stroke-width="1" fill="none" fill-rule="evenodd">
        <g id="list_icon">
            <g id="02_nor">
                <rect id="Rectangle-7" fill-opacity="0.01" fill="#1A2C55" x="0" y="0" width="16" height="16"></rect>
                <path d="M9.50000014,8.5 C11.5779623,8.5 13.3050102,10.0907968 13.4846906,12.1479474 L13.5087409,12.4232978 L13.2883606,12.5901175 C13.059055,12.7636934 12.7392689,12.9490766 12.3823075,13.1156586 C11.4534719,13.5491152 10.41913,13.8000002 9.50000014,13.8000002 C8.58087022,13.8000002 7.54652836,13.5491152 6.61769278,13.1156586 C6.26073139,12.9490766 5.94094525,12.7636934 5.71163963,12.5901175 L5.4912594,12.4232978 L5.51530968,12.1479474 C5.69499005,10.0907968 7.422038,8.5 9.50000014,8.5 Z M13.5000003,12.5000001 C13.5000003,10.2908611 11.7091392,8.5 9.50000014,8.5 C7.29086106,8.5 5.5,10.2908611 5.5,12.5000001 C5.5,12.3988706 5.56364483,12.476093 5.69212049,12.5752028 C5.91694804,12.7486412 6.2419742,12.9403233 6.61769278,13.1156586 C7.52217697,13.5377512 8.55737027,13.8000002 9.50000014,13.8000002 C10.44263,13.8000002 11.4778233,13.5377512 12.3823075,13.1156586 C12.7580261,12.9403233 13.0830522,12.7486412 13.3078798,12.5752028 C13.4363554,12.476093 13.5000003,12.3988706 13.5000003,12.5000001 Z" id="Oval-2" stroke="#FDFFFF" opacity="0.600000024" fill-rule="nonzero"></path>
                <path d="M9.5,6.23684211 C8.40096242,6.23684211 7.5,5.40525362 7.5,4.36842105 C7.5,3.33158848 8.40096242,2.5 9.5,2.5 C10.5990376,2.5 11.5,3.33158848 11.5,4.36842105 C11.5,5.40525362 10.5990376,6.23684211 9.5,6.23684211 Z M9.5,6.23684211 C10.6104339,6.23684211 11.5,5.3940953 11.5,4.36842105 C11.5,3.34274681 10.6104339,2.5 9.5,2.5 C8.38956608,2.5 7.5,3.34274681 7.5,4.36842105 C7.5,5.3940953 8.38956608,6.23684211 9.5,6.23684211 Z" id="Oval-47" stroke="#FDFFFF" opacity="0.600000024" fill-rule="nonzero"></path>
                <path d="M3.5,6.5 L2,6.5 L2,7.5 L3.5,7.5 L3.5,9 L4.5,9 L4.5,7.5 L6,7.5 L6,6.5 L4.5,6.5 L4.5,5 L3.5,5 L3.5,6.5 Z" id="Combined-Shape" fill="#34BBED"></path>
            </g>
        </g>
    </g>
</svg>