<?xml version="1.0" encoding="UTF-8" standalone="no"?>
<svg width="16px" height="16px" viewBox="0 0 16 16" version="1.1" xmlns="http://www.w3.org/2000/svg" xmlns:xlink="http://www.w3.org/1999/xlink">
    <!-- Generator: Sketch 47.1 (45422) - http://www.bohemiancoding.com/sketch -->
    <title>02_sel</title>
    <desc>Created with Sketch.</desc>
    <defs></defs>
    <g id="Symbols" stroke="none" stroke-width="1" fill="none" fill-rule="evenodd">
        <g id="list_icon-copy">
            <g id="02_sel">
                <rect id="Rectangle-7" fill-opacity="0.01" fill="#1A2C55" x="0" y="0" width="16" height="16"></rect>
                <path d="M9.50000014,9 C7.67097329,9 6.16962727,10.4029684 6.01341327,12.1914539 C6.20704897,12.338029 6.49421191,12.5062694 6.82913551,12.662567 C7.67130699,13.0555804 8.63612201,13.3000002 9.50000014,13.3000002 C10.3638783,13.3000002 11.3286933,13.0555804 12.1708648,12.662567 C12.5057884,12.5062694 12.7929513,12.338029 12.986587,12.1914539 C12.830373,10.4029684 11.329027,9 9.50000014,9 Z M14.0000003,12.5000001 C14.0000003,12.9500001 11.7500002,14.3000002 9.50000014,14.3000002 C7.25000007,14.3000002 5,12.9500001 5,12.5000001 C5,10.0147187 7.01471869,8 9.50000014,8 C11.9852816,8 14.0000003,10.0147187 14.0000003,12.5000001 Z" id="Oval-2" fill="#FDFFFF" fill-rule="nonzero"></path>
                <path d="M9.5,5.73684211 C10.340156,5.73684211 11,5.11172671 11,4.36842105 C11,3.62511539 10.340156,3 9.5,3 C8.65984403,3 8,3.62511539 8,4.36842105 C8,5.11172671 8.65984403,5.73684211 9.5,5.73684211 Z M9.5,6.73684211 C8.11928813,6.73684211 7,5.67646388 7,4.36842105 C7,3.06037822 8.11928813,2 9.5,2 C10.8807119,2 12,3.06037822 12,4.36842105 C12,5.67646388 10.8807119,6.73684211 9.5,6.73684211 Z" id="Oval-47" fill="#FDFFFF" fill-rule="nonzero"></path>
                <path d="M3.5,6.5 L2,6.5 L2,7.5 L3.5,7.5 L3.5,9 L4.5,9 L4.5,7.5 L6,7.5 L6,6.5 L4.5,6.5 L4.5,5 L3.5,5 L3.5,6.5 Z" id="Combined-Shape" fill="#FDFFFF"></path>
            </g>
        </g>
    </g>
</svg>