<?xml version="1.0" encoding="UTF-8" standalone="no"?>
<svg width="16px" height="16px" viewBox="0 0 16 16" version="1.1" xmlns="http://www.w3.org/2000/svg" xmlns:xlink="http://www.w3.org/1999/xlink">
    <!-- Generator: Sketch 47.1 (45422) - http://www.bohemiancoding.com/sketch -->
    <title>03_sel</title>
    <desc>Created with Sketch.</desc>
    <defs></defs>
    <g id="Symbols" stroke="none" stroke-width="1" fill="none" fill-rule="evenodd">
        <g id="list_icon1-copy">
            <g id="03_sel">
                <rect id="Rectangle-7" fill-opacity="0.01" fill="#1A2C55" x="0" y="0" width="16" height="16"></rect>
                <path d="M13.3366648,11.9736842 C12.1218378,13.5063759 10.1719557,14.5 8.0033315,14.5 C5.81079283,14.5 3.88843793,13.5381927 2.66999817,11.9736842 L4.01867099,11.9736842 C5.05192503,12.945634 6.45713168,13.5 8.0033315,13.5 C9.51262498,13.5 10.9323001,12.9351515 11.975843,11.9736842 L13.3366648,11.9736842 Z M13.3366648,11.9736842 C12.1218378,13.5063759 10.1719557,14.5 8.0033315,14.5 C5.81079283,14.5 3.88843793,13.5381927 2.66999817,11.9736842 L4.01867099,11.9736842 C5.05192503,12.945634 6.45713168,13.5 8.0033315,13.5 C9.51262498,13.5 10.9323001,12.9351515 11.975843,11.9736842 L13.3366648,11.9736842 Z M13.3366648,11.9736842 L11.975843,11.9736842 C10.9323001,11.0122169 9.51262498,10.4473684 8.0033315,10.4473684 C6.45713168,10.4473684 5.05192503,11.0017345 4.01867099,11.9736842 L2.66999817,11.9736842 C3.88843793,10.4091757 5.81079283,9.44736842 8.0033315,9.44736842 C10.1719557,9.44736842 12.1218378,10.4409925 13.3366648,11.9736842 Z M8.02777778,9.15789474 C6.81581958,9.15789474 5.83333333,8.2271183 5.83333333,7.07894737 C5.83333333,5.93077644 6.81581958,5 8.02777778,5 C9.23973598,5 10.2222222,5.93077644 10.2222222,7.07894737 C10.2222222,8.2271183 9.23973598,9.15789474 8.02777778,9.15789474 Z M8.02777778,8.15789474 C8.69918008,8.15789474 9.22222222,7.66238113 9.22222222,7.07894737 C9.22222222,6.49551361 8.69918008,6 8.02777778,6 C7.35637548,6 6.83333333,6.49551361 6.83333333,7.07894737 C6.83333333,7.66238113 7.35637548,8.15789474 8.02777778,8.15789474 Z M3,7.68421053 L2,7.68421053 C2,7.30017246 2.04020085,6.92502962 2.11683333,6.56235287 C2.66662974,3.96034402 5.09166502,2 8,2 C10.9170132,2 13.3478381,3.97206047 13.8880382,6.58566249 C13.961502,6.94109579 14,7.30839393 14,7.68421053 L13,7.68421053 C13,7.38040208 12.9692548,7.08086899 12.9087372,6.78807219 C12.4590121,4.61220675 10.4138316,3 8,3 C5.59382832,3 3.55309505,4.60216189 3.09523086,6.76908524 C3.03209064,7.06790752 3,7.37382626 3,7.68421053 Z" id="Combined-Shape" fill="#FDFFFF" fill-rule="nonzero"></path>
            </g>
        </g>
    </g>
</svg>