<?xml version="1.0" encoding="UTF-8" standalone="no"?>
<svg width="16px" height="16px" viewBox="0 0 16 16" version="1.1" xmlns="http://www.w3.org/2000/svg" xmlns:xlink="http://www.w3.org/1999/xlink">
    <!-- Generator: Sketch 47.1 (45422) - http://www.bohemiancoding.com/sketch -->
    <title>04_sel</title>
    <desc>Created with Sketch.</desc>
    <defs></defs>
    <g id="Symbols" stroke="none" stroke-width="1" fill="none" fill-rule="evenodd">
        <g id="list_icon2-copy-16">
            <g id="04_sel">
                <rect id="Rectangle-7" fill-opacity="0.01" fill="#1A2C55" x="0" y="0" width="16" height="16"></rect>
                <path d="M4.94551224,7.51353215 C4.92520399,7.48993706 4.91251133,7.47497946 4.90743427,7.46865934 C4.87138607,7.42437481 4.80522774,7.38742375 4.70895929,7.35780616 L4.70895435,7.3578222 C4.58475383,7.31961114 4.5,7.20486186 4.5,7.07491627 L4.5,7.07491627 L4.5,7.07491627 C4.5,6.94402244 4.60611042,6.83791202 4.73700425,6.83791202 L5.62710789,6.83791202 C5.66010879,6.83791202 5.66708976,6.83791202 5.69184044,6.87204063 L7.9980961,9.57452114 L10.3068903,6.87962477 C10.3373527,6.83854403 10.3468722,6.83854403 10.3786038,6.83854403 L11.2626797,6.83854403 L11.2626797,6.83854403 C11.3937481,6.83854403 11.5,6.94479593 11.5,7.07586429 L11.5,7.07586429 L11.5,7.07586429 C11.5,7.20601459 11.4155749,7.3211243 11.2914381,7.36022871 C11.1966019,7.39011252 11.131368,7.42709589 11.0957389,7.47118739 L11.0659112,7.50721203 C10.7473678,7.89722679 9.85093286,8.92054167 8.37660639,10.5771567 L8.37662197,10.5771706 C8.19303154,10.7834605 7.87697107,10.801862 7.67068116,10.6182716 C7.65522456,10.6045158 7.64063671,10.5898139 7.62700174,10.5742506 L4.94551224,7.51353215 Z" id="Shape" fill="#FDFFFF" fill-rule="nonzero"></path>
                <path d="M5.22996746,3.5 L2.65853889,6.5 L8,12.7317046 L13.3414611,6.5 L10.7700325,3.5 L5.22996746,3.5 Z M5,2.5 L11,2.5 C11.1459624,2.5 11.2846372,2.56378136 11.3796283,2.67460431 L14.3796283,6.17460431 C14.5401239,6.36184918 14.5401239,6.63815082 14.3796283,6.82539569 L8.3796283,13.8253957 C8.18008051,14.0582014 7.81991949,14.0582014 7.6203717,13.8253957 L1.6203717,6.82539569 C1.4598761,6.63815082 1.4598761,6.36184918 1.6203717,6.17460431 L4.6203717,2.67460431 C4.7153628,2.56378136 4.85403756,2.5 5,2.5 Z" id="Path-2" fill="#FDFFFF" fill-rule="nonzero"></path>
            </g>
        </g>
    </g>
</svg>