<?xml version="1.0" encoding="UTF-8" standalone="no"?>
<svg width="16px" height="16px" viewBox="0 0 16 16" version="1.1" xmlns="http://www.w3.org/2000/svg" xmlns:xlink="http://www.w3.org/1999/xlink">
    <!-- Generator: Sketch 47.1 (45422) - http://www.bohemiancoding.com/sketch -->
    <title>05_nor</title>
    <desc>Created with Sketch.</desc>
    <defs></defs>
    <g id="Symbols" stroke="none" stroke-width="1" fill="none" fill-rule="evenodd">
        <g id="list_icon2-copy">
            <g id="05_nor">
                <rect id="Rectangle-7" fill-opacity="0.01" fill="#1A2C55" x="0" y="0" width="16" height="16"></rect>
                <circle id="Oval-3" fill="#34BBED" cx="5" cy="13" r="1"></circle>
                <circle id="Oval-3-Copy" fill="#34BBED" cx="10.5" cy="13" r="1"></circle>
                <path d="M2.49808033,3.19565217 L3.7911726,10.0921443 C3.83551381,10.3286307 4.04200116,10.5 4.2826087,10.5 L11.1456353,10.5 C11.3789184,10.5 11.5812003,10.3386799 11.633103,10.111244 L12.9874677,4.17646141 C13.0588959,3.86346539 12.8210428,3.56521739 12.5,3.56521739 L4.73913043,3.56521739 C4.46298806,3.56521739 4.23913043,3.78907502 4.23913043,4.06521739 C4.23913043,4.34135977 4.46298806,4.56521739 4.73913043,4.56521739 L11.8730415,4.56521739 L10.7468848,9.5 L4.69757184,9.5 L3.40447957,2.60350791 C3.36013836,2.36702145 3.15365101,2.19565217 2.91304348,2.19565217 L2,2.19565217 C1.72385763,2.19565217 1.5,2.4195098 1.5,2.69565217 C1.5,2.97179455 1.72385763,3.19565217 2,3.19565217 L2.49808033,3.19565217 Z" id="Path-3" fill="#FFFFFF" fill-rule="nonzero" opacity="0.600000024"></path>
            </g>
        </g>
    </g>
</svg>