<?xml version="1.0" encoding="UTF-8" standalone="no"?>
<svg width="16px" height="16px" viewBox="0 0 16 16" version="1.1" xmlns="http://www.w3.org/2000/svg" xmlns:xlink="http://www.w3.org/1999/xlink">
    <!-- Generator: Sketch 47.1 (45422) - http://www.bohemiancoding.com/sketch -->
    <title>06_sel</title>
    <desc>Created with Sketch.</desc>
    <defs></defs>
    <g id="Symbols" stroke="none" stroke-width="1" fill="none" fill-rule="evenodd">
        <g id="list_icon2-copy-8">
            <g id="06_sel">
                <rect id="Rectangle-7" fill-opacity="0.01" fill="#1A2C55" x="0" y="0" width="16" height="16"></rect>
                <path d="M3.2,3.2 L3.2,12.8 L12.8,12.8 L12.8,3.2 L3.2,3.2 Z M3.2,2 L12.8,2 C13.4627417,2 14,2.5372583 14,3.2 L14,12.8 C14,13.4627417 13.4627417,14 12.8,14 L3.2,14 C2.5372583,14 2,13.4627417 2,12.8 L2,3.2 C2,2.5372583 2.5372583,2 3.2,2 Z" id="Rectangle-6" fill="#FDFFFF" fill-rule="nonzero"></path>
                <path d="M6.5700154,9.34402469 L7.45405988,9.78604693 L7.45405988,9.78604693 C7.83904854,9.97854126 8.30402,9.90308678 8.60838026,9.59872652 L11,7.20710678 L11,7.20710678 C11.1952621,7.01184464 11.1952621,6.69526215 11,6.5 L11,6.5 L11,6.5 C10.8047379,6.30473785 10.4881554,6.30473785 10.2928932,6.5 L8.41092721,8.38196601 L8.41092721,8.38196601 C8.10656695,8.68632627 7.64159549,8.76178075 7.25660683,8.56928642 L6.54594012,8.21395307 L6.54594012,8.21395307 C6.16095146,8.02145874 5.69598,8.09691322 5.39161974,8.40127348 L5,8.79289322 L5,8.79289322 C4.80473785,8.98815536 4.80473785,9.30473785 5,9.5 L5,9.5 L5,9.5 C5.19526215,9.69526215 5.51184464,9.69526215 5.70710678,9.5 L5.72613996,9.48096682 L5.72613996,9.48096682 C5.94864504,9.25846174 6.28856626,9.20330012 6.5700154,9.34402469 Z" id="Path-2" fill="#FDFFFF" fill-rule="nonzero"></path>
            </g>
        </g>
    </g>
</svg>