<?xml version="1.0" encoding="utf-8"?>
<!-- Generator: Adobe Illustrator 21.0.0, SVG Export Plug-In . SVG Version: 6.00 Build 0)  -->
<svg version="1.1" id="图层_1" xmlns="http://www.w3.org/2000/svg" xmlns:xlink="http://www.w3.org/1999/xlink" x="0px" y="0px"
	 viewBox="0 0 16 16" style="enable-background:new 0 0 16 16;" xml:space="preserve">
<style type="text/css">
	.st0{fill:#BABABA;}
	.st1{opacity:1.000000e-02;fill:none;}
	.st2{fill:#29BAF0;}
</style>
<g>
	<path id="path-1" class="st0" d="M3.2,3.6c0-0.2-0.1-0.4-0.3-0.5C2.7,3,2.5,3,2.3,3.1C2.1,3.2,2,3.4,2,3.6V12c0,1,0.8,1.8,1.8,1.8
		h9.6c0.3,0,0.6-0.3,0.6-0.6s-0.3-0.6-0.6-0.6H3.8c-0.2,0-0.3-0.1-0.4-0.2c-0.1-0.1-0.2-0.3-0.2-0.4V3.6z"/>
</g>
<title>07_nor</title>
<desc>Created with Sketch.</desc>
<g id="Symbols">
	<g id="list_icon2-copy-13">
		<g id="_x30_7_x5F_nor">
			<rect id="Rectangle-7" class="st1" width="16" height="16"/>
		</g>
	</g>
</g>
<path id="Shape-Copy" class="st2" d="M3.2,9.3l4.1-3.7c0.2-0.2,0.6-0.2,0.9,0L9.3,7c0.3,0.3,0.8,0.5,1.2,0.6c0.5,0,0.9-0.2,1.3-0.5
	l1.9-1.7c0.2-0.1,0.2-0.4,0.2-0.6c0-0.2-0.2-0.4-0.4-0.4c-0.2-0.1-0.4,0-0.6,0.1L11,6.2c-0.1,0.1-0.3,0.2-0.4,0.2
	c-0.2,0-0.3-0.1-0.4-0.2L9,4.9C8.4,4.1,7.2,4.1,6.5,4.7l-3.3,3L3.2,9.3z"/>
</svg>
