<?xml version="1.0" encoding="UTF-8" standalone="no"?>
<svg width="16px" height="16px" viewBox="0 0 16 16" version="1.1" xmlns="http://www.w3.org/2000/svg" xmlns:xlink="http://www.w3.org/1999/xlink">
    <!-- Generator: Sketch 47.1 (45422) - http://www.bohemiancoding.com/sketch -->
    <title>07_sel</title>
    <desc>Created with Sketch.</desc>
    <defs>
        <path d="M3.18356987,3.5918828 C3.18360483,3.3804351 3.07081891,3.1850344 2.88770566,3.07930046 C2.7045924,2.97356651 2.47897747,2.97356651 2.29586422,3.07930046 C2.11275097,3.1850344 1.99996504,3.3804351 2.00000001,3.5918828 L2.00000001,11.9945114 C2.00000001,12.9768744 2.79417538,13.767499 3.78008908,13.767499 L13.4041618,13.767499 C13.7309574,13.767445 13.9958489,13.5025097 13.9958489,13.1757141 C13.9958489,12.8489185 13.7309574,12.5839832 13.4041618,12.5839292 L3.78008908,12.5839292 C3.62253898,12.5858275 3.47078743,12.5245674 3.35870946,12.4138237 C3.2466315,12.30308 3.18355843,12.1520729 3.18356987,11.9945114 L3.18356987,9.69235148 L7.30120942,6.01499991 C7.54801424,5.79277043 7.92689406,5.80746383 8.15574686,6.04813987 L9.2685356,7.38699045 C9.59013935,7.7294907 10.0352623,7.92929174 10.5049163,7.94196106 C10.9745703,7.95463038 11.4298176,7.7791176 11.7694187,7.45445392 L13.6574457,5.76526667 C13.8109398,5.61980669 13.8751723,5.40350799 13.8259473,5.19784819 C13.7767223,4.99218839 13.6215184,4.82841212 13.4187992,4.76821231 C13.2160801,4.7080125 12.9966438,4.76053495 12.8431496,4.90599494 L10.9539391,6.59518221 C10.8434984,6.70216509 10.6949583,6.7606955 10.5412243,6.75780744 C10.3874903,6.75491937 10.2412533,6.69085124 10.1349087,6.5797958 L9.02212,5.24094522 C8.35420416,4.52900915 7.2400313,4.48065825 6.51295189,5.13205679 L3.18475344,8.10518428 L3.18356987,3.5918828 Z" id="path-1"></path>
    </defs>
    <g id="Symbols" stroke="none" stroke-width="1" fill="none" fill-rule="evenodd">
        <g id="list_icon2-copy-14">
            <g id="07_sel">
                <rect id="Rectangle-7" fill-opacity="0.01" fill="#1A2C55" x="0" y="0" width="16" height="16"></rect>
                <mask id="mask-2" fill="white">
                    <use xlink:href="#path-1"></use>
                </mask>
                <use id="Shape" fill="#FDFFFF" fill-rule="nonzero" xlink:href="#path-1"></use>
            </g>
        </g>
    </g>
</svg>