<?xml version="1.0" encoding="UTF-8" standalone="no"?>
<svg width="16px" height="16px" viewBox="0 0 16 16" version="1.1" xmlns="http://www.w3.org/2000/svg" xmlns:xlink="http://www.w3.org/1999/xlink">
    <!-- Generator: Sketch 47.1 (45422) - http://www.bohemiancoding.com/sketch -->
    <title>08_sel</title>
    <desc>Created with Sketch.</desc>
    <defs></defs>
    <g id="Symbols" stroke="none" stroke-width="1" fill="none" fill-rule="evenodd">
        <g id="list_icon2-copy-10">
            <g id="08_sel">
                <rect id="Rectangle-7" fill-opacity="0.01" fill="#1A2C55" x="0" y="0" width="16" height="16"></rect>
                <path d="M14.0000819,8.00206533 L14,8.00525447 L14,7.99924936 L14.0000819,8.00206533 Z M13.9957058,8.00075094 C13.9706256,7.90894776 13.8542641,7.54859884 13.7343399,7.24855642 C13.5125606,6.69030081 13.2337141,6.15743296 12.9114621,5.73867964 C12.408593,5.08582212 11.7946508,4.56778318 11.0856745,4.19824195 C10.2011957,3.73583928 9.16463223,3.5 7.99927994,3.5 C6.83530883,3.5 5.79865156,3.73586062 4.91234015,4.19852656 C4.20067653,4.56946806 3.58722925,5.08743567 3.08733477,5.73987296 C2.76751713,6.15574929 2.49240841,6.68240123 2.26549425,7.24897333 C2.14081938,7.56198186 2.01987602,7.94003049 2.00220709,7.99179263 C2.02200623,8.07001564 2.14102465,8.44321711 2.26421997,8.75144358 C2.4875058,9.31349125 2.76429465,9.84405904 3.08550493,10.2626235 C3.590033,10.9169573 4.20352013,11.434266 4.91172115,11.8034037 C5.79191585,12.2642648 6.82990281,12.5 7.99783981,12.5 C9.16878342,12.5 10.2064412,12.2651183 11.0862197,11.804476 C11.7978834,11.4335345 12.4113306,10.9155669 12.9113266,10.2629977 C13.2337141,9.84406831 13.5125606,9.31120047 13.7347268,8.75197388 C13.8543061,8.45279714 13.9706287,8.09254665 13.9957058,8.00075094 Z M13.9084307,8.15214646 C13.6903926,8.84599923 13.357223,9.60218307 12.8966091,10.2023989 C12.4010577,10.8493793 11.7913218,11.3651239 11.086327,11.7325856 C10.2035966,12.1967933 9.16355667,12.4295902 7.99783981,12.4295902 C6.83685234,12.4295902 5.79590848,12.1969422 4.90623924,11.7332183 C4.19955235,11.3640431 3.58924991,10.8493267 3.09359134,10.2042672 C2.6326961,9.60368435 2.29952649,8.84750051 2.08148844,8.15364774 L2.03451982,8.00418157 L2.08124398,7.8546388 C2.29776208,7.16166304 2.63255618,6.40139051 3.09331002,5.80360616 C3.58886141,5.15662582 4.19859729,4.64088123 4.90488574,4.27274158 C5.79406324,3.80845396 6.83416243,3.57491368 7.99351944,3.57491368 C9.1519635,3.57491368 10.1933682,3.80865891 11.0830487,4.27321037 C11.7928345,4.64565604 12.4030075,5.16060007 12.8576132,5.76001204 L12.9001646,5.80861529 C13.3591306,6.40472318 13.6894627,7.1555453 13.9084307,7.85235737 L13.9555339,8.00225191 L13.9084307,8.15214646 Z" id="Shape" stroke="#FDFFFF" transform="translate(8.000000, 8.000000) scale(1, -1) translate(-8.000000, -8.000000) "></path>
                <path d="M8,10.5 C6.62088863,10.5 5.5,9.37766878 5.5,8 C5.5,6.62233122 6.62233122,5.5 8,5.5 C9.37766878,5.5 10.5,6.62233122 10.5,8 C10.5,9.37766878 9.37911137,10.5 8,10.5 Z M9.52864301,8.0572062 C9.52864301,7.66482304 9.37572899,7.29552126 9.09731006,7.01710233 C8.81889114,6.7386834 8.44958935,6.58576938 8.0572062,6.58576938 C7.66482304,6.58576938 7.29552126,6.7386834 7.01710233,7.01710233 C6.7386834,7.29552126 6.58576938,7.66482304 6.58576938,8.0572062 C6.58576938,8.44958935 6.7386834,8.81889114 7.01710233,9.09731006 C7.29552126,9.37572899 7.66482304,9.52864301 8.0572062,9.52864301 C8.44958935,9.52864301 8.81889114,9.37572899 9.09731006,9.09731006 C9.37572899,8.81889114 9.52864301,8.44958935 9.52864301,8.0572062 Z" id="Combined-Shape" fill="#FDFFFF"></path>
            </g>
        </g>
    </g>
</svg>