<?xml version="1.0" encoding="UTF-8" standalone="no"?>
<svg width="16px" height="16px" viewBox="0 0 16 16" version="1.1" xmlns="http://www.w3.org/2000/svg" xmlns:xlink="http://www.w3.org/1999/xlink">
    <!-- Generator: Sketch 47.1 (45422) - http://www.bohemiancoding.com/sketch -->
    <title>client</title>
    <desc>Created with Sketch.</desc>
    <defs></defs>
    <g id="Symbols" stroke="none" stroke-width="1" fill="none" fill-rule="evenodd">
        <g id="list_icon2-copy-16">
            <g id="client">
                <rect id="Rectangle-7" fill-opacity="0.01" fill="#1A2C55" x="0" y="0" width="16" height="16"></rect>
                <polygon id="Line-2" fill="#34BBED" fill-rule="nonzero" points="5 14 11 14 11 13 5 13"></polygon>
                <path d="M2.5,10.5 L2.5,3.5 L13.5,3.5 L13.5,10.5 L2.5,10.5 Z M3,3.5 C2.72385763,3.5 2.5,3.72385763 2.5,4 L2.5,10 C2.5,10.2761424 2.72385763,10.5 3,10.5 L13,10.5 C13.2761424,10.5 13.5,10.2761424 13.5,10 L13.5,4 C13.5,3.72385763 13.2761424,3.5 13,3.5 L3,3.5 Z" id="Rectangle-9" stroke="#FDFFFF" opacity="0.600000024" fill-rule="nonzero"></path>
                <polygon id="Line" fill="#34BBED" fill-rule="nonzero" points="7.5 11 7.5 13 8.5 13 8.5 11"></polygon>
            </g>
        </g>
    </g>
</svg>