<?xml version="1.0" encoding="UTF-8" standalone="no"?>
<svg width="16px" height="16px" viewBox="0 0 16 16" version="1.1" xmlns="http://www.w3.org/2000/svg" xmlns:xlink="http://www.w3.org/1999/xlink">
    <!-- Generator: Sketch 47.1 (45422) - http://www.bohemiancoding.com/sketch -->
    <title>info_icon</title>
    <desc>Created with Sketch.</desc>
    <defs></defs>
    <g id="Symbols" stroke="none" stroke-width="1" fill="none" fill-rule="evenodd">
        <g id="list_icon2-copy-6">
            <g id="info_icon">
                <rect id="Rectangle-7" fill-opacity="0.01" fill="#1A2C55" x="0" y="0" width="16" height="16"></rect>
                <path d="M8,14 C11.3137085,14 14,11.3137085 14,8 C14,4.6862915 11.3137085,2 8,2 C4.6862915,2 2,4.6862915 2,8 C2,11.3137085 4.6862915,14 8,14 Z M8,15 C4.13400675,15 1,11.8659932 1,8 C1,4.13400675 4.13400675,1 8,1 C11.8659932,1 15,4.13400675 15,8 C15,11.8659932 11.8659932,15 8,15 Z" id="Combined-Shape" fill="#009AE8" fill-rule="nonzero"></path>
                <path d="M8.09271523,5 C7.4392936,5 6.92715232,5.18543046 6.55629139,5.56512141 C6.18543046,5.93598234 6,6.4392936 6,7.08388521 L6.92715232,7.08388521 C6.92715232,6.69536424 7.00662252,6.39514349 7.16556291,6.18322296 C7.34216336,5.92715232 7.63355408,5.80353201 8.03090508,5.80353201 C8.34878587,5.80353201 8.60485651,5.89183223 8.78145695,6.06843267 C8.94922737,6.24503311 9.03752759,6.48344371 9.03752759,6.79249448 C9.03752759,7.02207506 8.94922737,7.23399558 8.79028698,7.43708609 L8.6401766,7.60485651 C8.09271523,8.09050773 7.75717439,8.45253863 7.64238411,8.69977925 C7.5187638,8.92935982 7.46578366,9.21192053 7.46578366,9.53863135 L7.46578366,9.68874172 L8.41059603,9.68874172 L8.41059603,9.53863135 C8.41059603,9.32671082 8.45474614,9.13245033 8.55187638,8.95584989 C8.63134658,8.79690949 8.75496689,8.63796909 8.92273731,8.49668874 C9.33774834,8.13465784 9.58498896,7.90507726 9.66445916,7.80794702 C9.88520971,7.52538631 10,7.16335541 10,6.73068433 C10,6.200883 9.82339956,5.77704194 9.47019868,5.46799117 C9.11699779,5.15011038 8.65783664,5 8.09271523,5 Z" id="？" fill="#009AE8"></path>
                <path d="M7.93377483,10.1655629 C7.75717439,10.1655629 7.598234,10.218543 7.47461369,10.3421634 C7.35099338,10.4569536 7.28918322,10.607064 7.28918322,10.7924945 C7.28918322,10.9690949 7.35099338,11.1192053 7.47461369,11.2428256 C7.598234,11.3664459 7.75717439,11.4282561 7.93377483,11.4282561 C8.11037528,11.4282561 8.26931567,11.3664459 8.39293598,11.2516556 C8.51655629,11.1280353 8.58719647,10.9779249 8.58719647,10.7924945 C8.58719647,10.607064 8.52538631,10.4569536 8.401766,10.3421634 C8.2781457,10.218543 8.1192053,10.1655629 7.93377483,10.1655629 Z" id="？" fill="#009AE8"></path>
            </g>
        </g>
    </g>
</svg>