<?xml version="1.0" encoding="UTF-8" standalone="no"?>
<svg width="154px" height="26px" viewBox="0 0 154 26" version="1.1" xmlns="http://www.w3.org/2000/svg" xmlns:xlink="http://www.w3.org/1999/xlink">
    <!-- Generator: Sketch 47.1 (45422) - http://www.bohemiancoding.com/sketch -->
    <title>Group 2</title>
    <desc>Created with Sketch.</desc>
    <defs></defs>
    <g id="Page-1" stroke="none" stroke-width="1" fill="none" fill-rule="evenodd">
        <g id="logo" transform="translate(-22.000000, -16.000000)">
            <g id="Group-2">
                <g transform="translate(21.000000, 15.000000)">
                    <g id="dashboard-copy-4">
                        <g id="Group" transform="translate(1.680000, 1.680000)">
                            <g id="Group-18-Copy" transform="translate(8.996129, 15.680000) scale(1, -1) translate(-8.996129, -15.680000) translate(6.756129, 6.720000)">
                                <rect id="Rectangle-7-Copy-2" fill="#2AC6FF" x="0" y="13.5122581" width="4.3716129" height="4.3716129"></rect>
                                <rect id="Rectangle-7-Copy" fill="#FDB819" x="0" y="0" width="4.3716129" height="11.1277419"></rect>
                            </g>
                            <g id="Group-18-Copy-2" transform="translate(13.512258, 6.756129)">
                                <polygon id="Rectangle-7-Copy-2" fill="#FA7348" points="-5.86197757e-14 11.163871 4.3716129 11.163871 4.3716129 17.883871 7.03437308e-15 17.883871"></polygon>
                                <polygon id="Rectangle-7-Copy" fill="#2AC6FF" points="7.03437308e-15 0 4.3716129 0 4.3716129 8.77935484 -5.86197757e-14 8.77935484"></polygon>
                            </g>
                            <g id="Group-18-Copy-4" transform="translate(15.716129, 2.240000) scale(-1, 1) rotate(90.000000) translate(-15.716129, -2.240000) translate(13.476129, -6.720000)">
                                <rect id="Rectangle-7-Copy-2" fill="#2AC6FF" x="0" y="13.5122581" width="4.3716129" height="4.3716129"></rect>
                                <rect id="Rectangle-7-Copy" fill="#D8D8D8" x="0" y="0" width="4.3716129" height="11.1277419"></rect>
                            </g>
                            <rect id="Rectangle-7" fill="#2AC6FF" x="0" y="0" width="4.3716129" height="4.3716129"></rect>
                            <g id="Group-18" transform="translate(0.000000, 6.756129)" fill="#2AC6FF">
                                <rect id="Rectangle-7-Copy-2" x="0" y="13.5122581" width="4.3716129" height="4.3716129"></rect>
                                <rect id="Rectangle-7-Copy" x="0" y="0" width="4.3716129" height="11.1277419"></rect>
                            </g>
                            <g id="Group-18-Copy-3" transform="translate(20.268387, 6.756129)" fill="#2AC6FF">
                                <rect id="Rectangle-7-Copy-2" x="0" y="13.5122581" width="4.3716129" height="4.3716129"></rect>
                                <rect id="Rectangle-7-Copy" x="0" y="0" width="4.3716129" height="11.1277419"></rect>
                            </g>
                        </g>
                    </g>
                    <g id="Group" transform="translate(53.000000, 1.000000)">
                        <text id="用户行为数据后台" opacity="0.449999988" font-family="PingFangSC-Light, PingFang SC" font-size="8" font-weight="300" letter-spacing="5.5" fill="#FFFFFF">
                            <tspan x="0" y="25">用户行为数据后台</tspan>
                        </text>
                        <path d="M21,13.9762712 L17.0964912,13.9762712 L17.0964912,5.03050847 L12.25,12.2440678 L9.72807018,12.2440678 L4.90350877,5.03050847 L4.90350877,13.9762712 L1,14 L1,0 L5.40789474,0 L11,8.32881356 L16.5701754,0 L21,0 L21,13.9762712 Z M55,0 L52.1810127,3.10847458 L48.4151899,3.10847458 L48.4151899,13.9762712 L44.5848101,14 L44.5848101,3.10847458 L40.8189873,3.10847458 L38,0 L55,0 Z M74,14 L69.9653333,14 L69.9653333,10.559322 L68.7413333,9.30169492 L61.0346667,9.30169492 L61.0346667,14 L57,14 L57,0 L70.9626667,0 L74,4.29491525 L71.688,7.54576271 L74,9.96610169 L74,14 Z M70,4.46456693 L68.9125964,3 L61,3 L61,6 L68.9125964,6 L70,4.46456693 Z M81,13.6613603 L77,16 L77,0 L81,0 L81,13.6613603 Z M102,14 L97.258427,14 L93.011236,9.51525424 L88.7640449,14 L84,14 L90.6292135,7.02372881 L84,0 L88.7640449,0 L93.011236,4.50847458 L97.258427,0 L102,0 L95.3707865,7.02372881 L102,14 Z" id="MATRIX" fill="#F6F6F6"></path>
                        <polygon id="Combined-Shape" fill="#2AC6FF" points="39 13.67528 35.1367482 13.67528 31.1470034 4.10648196 27.4102445 13.67528 23 16 29.1917226 0 32.7764041 0"></polygon>
                    </g>
                </g>
            </g>
        </g>
    </g>
</svg>